# xmcd
#
# Track frame offsets:
#	150
#	21927
#	48340
#	66477
#	81292
#	110570
#	132190
#	159367
#	182002
#	199845
#	228805
#	236845
#
# Disc length: 3565 seconds
#
# Revision: 0
# Processed by: cddbd v1.4PL0 Copyright (c) Steve Scherf et al.
# Submitted via: dBpowerAMP V4.0
#
DISCID=a00deb0c
DTITLE=Jake Kaligis  - Durango
DYEAR=1900
DGENRE=
TTITLE0=Separated by the miles.
TTITLE1=You make my world go round.
TTITLE2=Back to the scene of the crime.
TTITLE3=Sometimes you just can't lose.
TTITLE4=Broken glass.
TTITLE5=Ocean Drive.
TTITLE6=The Night.
TTITLE7=You're the only one.
TTITLE8=The dream is gone?
TTITLE9=Oceans to oceans.
TTITLE10=Respect.
TTITLE11=Planes.
EXTD=
EXTT0=
EXTT1=
EXTT2=
EXTT3=
EXTT4=
EXTT5=
EXTT6=
EXTT7=
EXTT8=
EXTT9=
EXTT10=
EXTT11=
PLAYORDER=
